<svg width="21" height="20" viewBox="0 0 21 20" fill="none" xmlns="http://www.w3.org/2000/svg">
    <path id="comment"
        d="M4.5 12H16.5V10H4.5V12ZM4.5 9H16.5V7H4.5V9ZM4.5 6H16.5V4H4.5V6ZM20.5 20L16.5 16H2.5C1.95 16 1.47917 15.8042 1.0875 15.4125C0.695833 15.0208 0.5 14.55 0.5 14V2C0.5 1.45 0.695833 0.979167 1.0875 0.5875C1.47917 0.195833 1.95 0 2.5 0H18.5C19.05 0 19.5208 0.195833 19.9125 0.5875C20.3042 0.979167 20.5 1.45 20.5 2V20Z"
        fill="#<path id=" call"
        d="M17.45 18C15.3 18 13.2042 17.5208 11.1625 16.5625C9.12083 15.6042 7.3125 14.3375 5.7375 12.7625C4.1625 11.1875 2.89583 9.37917 1.9375 7.3375C0.979167 5.29583 0.5 3.2 0.5 1.05C0.5 0.75 0.6 0.5 0.8 0.3C1 0.1 1.25 0 1.55 0H5.6C5.83333 0 6.04167 0.075 6.225 0.225C6.40833 0.375 6.51667 0.566667 6.55 0.8L7.2 4.3C7.23333 4.53333 7.22917 4.74583 7.1875 4.9375C7.14583 5.12917 7.05 5.3 6.9 5.45L4.5 7.9C5.2 9.1 6.075 10.225 7.125 11.275C8.175 12.325 9.33333 13.2333 10.6 14L12.95 11.65C13.1 11.5 13.2958 11.3875 13.5375 11.3125C13.7792 11.2375 14.0167 11.2167 14.25 11.25L17.7 11.95C17.9333 12 18.125 12.1125 18.275 12.2875C18.425 12.4625 18.5 12.6667 18.5 12.9V16.95C18.5 17.25 18.4 17.5 18.2 17.7C18 17.9 17.75 18 17.45 18Z"
        fill="#FF652E" />
    "/>
</svg>