<svg width="21" height="18" viewBox="0 0 21 18" fill="none" xmlns="http://www.w3.org/2000/svg">
    <path id="Icon/Menu/Tasks"
        d="M5.9535 0.699759C5.90995 0.656059 5.85821 0.621386 5.80123 0.597727C5.74425 0.574068 5.68316 0.56189 5.62147 0.56189C5.55977 0.56189 5.49869 0.574068 5.44171 0.597727C5.38473 0.621386 5.33299 0.656059 5.28944 0.699759L2.80193 3.17281L1.91521 2.30875C1.87167 2.26505 1.81992 2.23037 1.76294 2.20671C1.70596 2.18305 1.64488 2.17088 1.58318 2.17088C1.52149 2.17088 1.4604 2.18305 1.40342 2.20671C1.34645 2.23037 1.2947 2.26505 1.25115 2.30875L0.63787 2.92281C0.59417 2.96636 0.559496 3.0181 0.535837 3.07508C0.512179 3.13206 0.5 3.19315 0.5 3.25484C0.5 3.31653 0.512179 3.37762 0.535837 3.4346C0.559496 3.49158 0.59417 3.54332 0.63787 3.58687L2.49686 5.43844C2.58965 5.52664 2.71278 5.57583 2.8408 5.57583C2.96883 5.57583 3.09196 5.52664 3.18475 5.43844L3.79373 4.82828L6.61405 2.00835C6.70192 1.92041 6.75157 1.80136 6.75223 1.67705C6.75289 1.55273 6.7045 1.43316 6.61756 1.34429L5.9535 0.699759ZM5.9535 6.91813C5.90995 6.87443 5.85821 6.83975 5.80123 6.81609C5.74425 6.79243 5.68316 6.78026 5.62147 6.78026C5.55977 6.78026 5.49869 6.79243 5.44171 6.81609C5.38473 6.83975 5.33299 6.87443 5.28944 6.91813L2.80193 9.40719L1.91521 8.54391C1.87167 8.50021 1.81992 8.46553 1.76294 8.44188C1.70596 8.41822 1.64488 8.40604 1.58318 8.40604C1.52149 8.40604 1.4604 8.41822 1.40342 8.44188C1.34645 8.46553 1.2947 8.50021 1.25115 8.54391L0.63787 9.1568C0.59417 9.20035 0.559496 9.2521 0.535837 9.30907C0.512179 9.36605 0.5 9.42714 0.5 9.48883C0.5 9.55053 0.512179 9.61161 0.535837 9.66859C0.559496 9.72557 0.59417 9.77731 0.63787 9.82086L2.49217 11.6763C2.58489 11.7645 2.70796 11.8137 2.83592 11.8137C2.96388 11.8137 3.08694 11.7645 3.17967 11.6763L3.79295 11.0634L6.61327 8.24235C6.7008 8.15502 6.75029 8.03664 6.75095 7.91299C6.75161 7.78934 6.70338 7.67044 6.61678 7.58219L5.9535 6.91813ZM2.99998 13.6881C1.96521 13.6881 1.10193 14.5279 1.10193 15.5631C1.10193 16.5982 1.966 17.4381 2.99998 17.4381C3.49726 17.4381 3.97418 17.2405 4.32581 16.8889C4.67744 16.5373 4.87498 16.0603 4.87498 15.5631C4.87498 15.0658 4.67744 14.5889 4.32581 14.2372C3.97418 13.8856 3.49726 13.6881 2.99998 13.6881ZM19.875 14.3131H8.62499C8.45923 14.3131 8.30026 14.3789 8.18305 14.4961C8.06583 14.6133 7.99999 14.7723 7.99999 14.9381V16.1881C7.99999 16.3538 8.06583 16.5128 8.18305 16.63C8.30026 16.7472 8.45923 16.8131 8.62499 16.8131H19.875C20.0408 16.8131 20.1997 16.7472 20.3169 16.63C20.4342 16.5128 20.5 16.3538 20.5 16.1881V14.9381C20.5 14.7723 20.4342 14.6133 20.3169 14.4961C20.1997 14.3789 20.0408 14.3131 19.875 14.3131ZM19.875 1.81304H8.62499C8.45923 1.81304 8.30026 1.87889 8.18305 1.9961C8.06583 2.11331 7.99999 2.27228 7.99999 2.43804V3.68804C7.99999 3.8538 8.06583 4.01278 8.18305 4.12999C8.30026 4.2472 8.45923 4.31304 8.62499 4.31304H19.875C20.0408 4.31304 20.1997 4.2472 20.3169 4.12999C20.4342 4.01278 20.5 3.8538 20.5 3.68804V2.43804C20.5 2.27228 20.4342 2.11331 20.3169 1.9961C20.1997 1.87889 20.0408 1.81304 19.875 1.81304ZM19.875 8.06305H8.62499C8.45923 8.06305 8.30026 8.1289 8.18305 8.24611C8.06583 8.36332 7.99999 8.52229 7.99999 8.68805V9.93805C7.99999 10.1038 8.06583 10.2628 8.18305 10.38C8.30026 10.4972 8.45923 10.5631 8.62499 10.5631H19.875C20.0408 10.5631 20.1997 10.4972 20.3169 10.38C20.4342 10.2628 20.5 10.1038 20.5 9.93805V8.68805C20.5 8.52229 20.4342 8.36332 20.3169 8.24611C20.1997 8.1289 20.0408 8.06305 19.875 8.06305Z"
        fill="#FF652E" />
</svg>