<svg width="14" height="16" viewBox="0 0 14 16" fill="none" xmlns="http://www.w3.org/2000/svg">
<path d="M6.80039 8C7.24039 8 7.61719 7.8432 7.93079 7.5296C8.24386 7.21653 8.40039 6.84 8.40039 6.4C8.40039 5.96 8.24386 5.5832 7.93079 5.2696C7.61719 4.95653 7.24039 4.8 6.80039 4.8C6.36039 4.8 5.98386 4.95653 5.67079 5.2696C5.35719 5.5832 5.20039 5.96 5.20039 6.4C5.20039 6.84 5.35719 7.21653 5.67079 7.5296C5.98386 7.8432 6.36039 8 6.80039 8ZM6.80039 16C4.65372 14.1733 3.05052 12.4765 1.99079 10.9096C0.930524 9.3432 0.400391 7.89333 0.400391 6.56C0.400391 4.56 1.04386 2.96667 2.33079 1.78C3.61719 0.593333 5.10706 0 6.80039 0C8.49372 0 9.98359 0.593333 11.27 1.78C12.5569 2.96667 13.2004 4.56 13.2004 6.56C13.2004 7.89333 12.6705 9.3432 11.6108 10.9096C10.5505 12.4765 8.94706 14.1733 6.80039 16Z" fill="#0055C0"/>
</svg>
