<svg width="14" height="16" viewBox="0 0 14 16" fill="none" xmlns="http://www.w3.org/2000/svg">
<path d="M7.1998 8C7.6398 8 8.0166 7.8432 8.3302 7.5296C8.64327 7.21653 8.7998 6.84 8.7998 6.4C8.7998 5.96 8.64327 5.5832 8.3302 5.2696C8.0166 4.95653 7.6398 4.8 7.1998 4.8C6.7598 4.8 6.38327 4.95653 6.07021 5.2696C5.75661 5.5832 5.5998 5.96 5.5998 6.4C5.5998 6.84 5.75661 7.21653 6.07021 7.5296C6.38327 7.8432 6.7598 8 7.1998 8ZM7.1998 16C5.05314 14.1733 3.44994 12.4765 2.3902 10.9096C1.32994 9.3432 0.799805 7.89333 0.799805 6.56C0.799805 4.56 1.44327 2.96667 2.7302 1.78C4.0166 0.593333 5.50647 0 7.1998 0C8.89314 0 10.383 0.593333 11.6694 1.78C12.9563 2.96667 13.5998 4.56 13.5998 6.56C13.5998 7.89333 13.0699 9.3432 12.0102 10.9096C10.9499 12.4765 9.34647 14.1733 7.1998 16Z" fill="#157A99"/>
</svg>
