<svg width="18" height="14" viewBox="0 0 18 14" fill="none" xmlns="http://www.w3.org/2000/svg">
<path d="M2.25 14C1.76875 14 1.35692 13.8288 1.0145 13.4864C0.6715 13.1434 0.5 12.7312 0.5 12.25V1.75C0.5 1.26875 0.6715 0.856917 1.0145 0.5145C1.35692 0.1715 1.76875 0 2.25 0H16.25C16.7313 0 17.1434 0.1715 17.4864 0.5145C17.8288 0.856917 18 1.26875 18 1.75V12.25C18 12.7312 17.8288 13.1434 17.4864 13.4864C17.1434 13.8288 16.7313 14 16.25 14H2.25ZM9.25 7.875L16.25 3.5V1.75L9.25 6.125L2.25 1.75V3.5L9.25 7.875Z" fill="#919EA8"/>
</svg>
