<svg width="16" height="16" viewBox="0 0 16 16" fill="none" xmlns="http://www.w3.org/2000/svg">
<path d="M12.6316 6.73684L11.4105 5.5579L12.7579 4.21053H8.42105V2.52632H12.7579L11.4526 1.22105L12.6316 0L16 3.41053L12.6316 6.73684ZM14.2737 16C12.4632 16 10.6984 15.5964 8.97937 14.7891C7.25979 13.9823 5.73698 12.9156 4.41095 11.5891C3.08435 10.263 2.01768 8.74021 1.21095 7.02063C0.403649 5.30161 0 3.53684 0 1.72632C0 1.47368 0.0842105 1.26316 0.252632 1.09474C0.421053 0.926316 0.631579 0.842105 0.884211 0.842105H4.29474C4.49123 0.842105 4.66667 0.905263 4.82105 1.03158C4.97544 1.15789 5.06667 1.3193 5.09474 1.51579L5.64211 4.46316C5.67018 4.65965 5.66681 4.83846 5.632 4.99958C5.59663 5.16126 5.51579 5.30526 5.38947 5.43158L3.36842 7.49474C3.95789 8.50526 4.69474 9.45263 5.57895 10.3368C6.46316 11.2211 7.4386 11.986 8.50526 12.6316L10.4842 10.6526C10.6105 10.5263 10.7756 10.4314 10.9794 10.368C11.1826 10.3051 11.3825 10.2877 11.5789 10.3158L14.4842 10.9053C14.6807 10.9474 14.8421 11.042 14.9684 11.1891C15.0947 11.3367 15.1579 11.5088 15.1579 11.7053V15.1158C15.1579 15.3684 15.0737 15.5789 14.9053 15.7474C14.7368 15.9158 14.5263 16 14.2737 16Z" fill="#0055C0"/>
</svg>
