<svg width="25" height="25" viewBox="0 0 25 25" fill="none" xmlns="http://www.w3.org/2000/svg">
<mask id="mask0_130_31181" style="mask-type:alpha" maskUnits="userSpaceOnUse" x="0" y="0" width="25" height="25">
<rect x="0.5" y="0.5" width="24" height="24" fill="#D9D9D9"/>
</mask>
<g mask="url(#mask0_130_31181)">
<path d="M19.7499 16.9501L18.2499 15.4001C18.9166 15.2167 19.4582 14.8625 19.8749 14.3376C20.2916 13.8126 20.4999 13.2 20.4999 12.5C20.4999 11.6667 20.2082 10.9584 19.6249 10.375C19.0416 9.79172 18.3332 9.50005 17.4999 9.50005H13.4999V7.50005H17.4999C18.8832 7.50005 20.0624 7.98755 21.0374 8.96255C22.0124 9.93755 22.4999 11.1167 22.4999 12.5C22.4999 13.45 22.2541 14.325 21.7624 15.125C21.2707 15.925 20.5999 16.5334 19.7499 16.9501ZM16.3499 13.5L14.3499 11.5H16.4999V13.5H16.3499ZM20.2999 23.1L1.8999 4.70005L3.2999 3.30005L21.6999 21.7001L20.2999 23.1ZM11.4999 17.5001H7.4999C6.11657 17.5001 4.9374 17.0126 3.9624 16.0375C2.9874 15.0625 2.4999 13.8834 2.4999 12.5C2.4999 11.35 2.8499 10.325 3.5499 9.42505C4.2499 8.52505 5.1499 7.93338 6.2499 7.65005L8.0999 9.50005H7.4999C6.66657 9.50005 5.95824 9.79172 5.3749 10.375C4.79157 10.9584 4.4999 11.6667 4.4999 12.5C4.4999 13.3334 4.79157 14.0417 5.3749 14.625C5.95824 15.2084 6.66657 15.5 7.4999 15.5H11.4999V17.5001ZM8.4999 13.5V11.5H10.1249L12.0999 13.5H8.4999Z" fill="#0A4997"/>
</g>
</svg>
