<svg width="19" height="18" viewBox="0 0 19 18" fill="none" xmlns="http://www.w3.org/2000/svg">
<path d="M9.5 10.0001C10.4667 10.0001 11.2917 9.65846 11.975 8.97512C12.6583 8.29179 13 7.46679 13 6.50012C13 5.53346 12.6583 4.70846 11.975 4.02512C11.2917 3.34179 10.4667 3.00012 9.5 3.00012C8.53333 3.00012 7.70833 3.34179 7.025 4.02512C6.34167 4.70846 6 5.53346 6 6.50012C6 7.46679 6.34167 8.29179 7.025 8.97512C7.70833 9.65846 8.53333 10.0001 9.5 10.0001ZM2.5 18.0001C1.95 18.0001 1.47917 17.8043 1.0875 17.4126C0.695833 17.021 0.5 16.5501 0.5 16.0001V2.00012C0.5 1.45012 0.695833 0.979289 1.0875 0.587622C1.47917 0.195955 1.95 0.00012207 2.5 0.00012207H16.5C17.05 0.00012207 17.5208 0.195955 17.9125 0.587622C18.3042 0.979289 18.5 1.45012 18.5 2.00012V16.0001C18.5 16.5501 18.3042 17.021 17.9125 17.4126C17.5208 17.8043 17.05 18.0001 16.5 18.0001H2.5ZM2.5 16.0001H16.5V14.8501C15.6 13.9668 14.5542 13.271 13.3625 12.7626C12.1708 12.2543 10.8833 12.0001 9.5 12.0001C8.11667 12.0001 6.82917 12.2543 5.6375 12.7626C4.44583 13.271 3.4 13.9668 2.5 14.8501V16.0001Z" fill="white"/>
</svg>
