<svg width="20" height="20" viewBox="0 0 20 20" fill="none" xmlns="http://www.w3.org/2000/svg">
<mask id="mask0_148_43622" style="mask-type:alpha" maskUnits="userSpaceOnUse" x="0" y="0" width="20" height="20">
<rect width="20" height="20" fill="#D9D9D9"/>
</mask>
<g mask="url(#mask0_148_43622)">
<path d="M9.99994 16.3462C9.82259 16.3462 9.66715 16.2794 9.53361 16.1459C9.40006 16.0123 9.33329 15.8569 9.33329 15.6795V6.17308L5.0464 10.46C4.90324 10.6031 4.75127 10.6747 4.59048 10.6747C4.4297 10.6747 4.27773 10.6031 4.13456 10.46C3.99141 10.3168 3.91636 10.1635 3.90942 10C3.90247 9.83658 3.97058 9.68327 4.11373 9.54012L9.43104 4.22281C9.52292 4.13093 9.61693 4.0655 9.71308 4.0265C9.80924 3.98751 9.90486 3.96802 9.99994 3.96802C10.1004 3.96802 10.1995 3.98751 10.2972 4.0265C10.395 4.0655 10.4855 4.13093 10.5688 4.22281L15.8861 9.54012C16.0293 9.68327 16.1009 9.83658 16.1009 10C16.1009 10.1635 16.0293 10.3168 15.8861 10.46C15.743 10.6031 15.5875 10.6747 15.4198 10.6747C15.2521 10.6747 15.0966 10.6031 14.9535 10.46L10.6666 6.19391V15.6795C10.6666 15.8569 10.5998 16.0123 10.4663 16.1459C10.3327 16.2794 10.1773 16.3462 9.99994 16.3462Z" fill="#0A4997"/>
</g>
</svg>
