<svg width="20" height="20" viewBox="0 0 20 20" fill="none" xmlns="http://www.w3.org/2000/svg">
<mask id="mask0_148_43599" style="mask-type:alpha" maskUnits="userSpaceOnUse" x="0" y="0" width="20" height="20">
<rect width="20" height="20" fill="#D9D9D9"/>
</mask>
<g mask="url(#mask0_148_43599)">
<path d="M9.99991 16.0321C9.90482 16.0321 9.8092 16.0091 9.71305 15.9632C9.6169 15.9172 9.52289 15.8553 9.43101 15.7773L4.1137 10.46C3.98443 10.3307 3.92327 10.1753 3.93022 9.99364C3.93716 9.81203 4.00527 9.65658 4.13453 9.52731C4.26381 9.39804 4.41712 9.33341 4.59447 9.33341C4.7718 9.33341 4.92511 9.39804 5.05439 9.52731L9.33326 13.8062V4.3286C9.33326 4.15125 9.40003 3.99447 9.53357 3.85824C9.66711 3.72203 9.82256 3.65393 9.99991 3.65393C10.1773 3.65393 10.3327 3.7207 10.4662 3.85424C10.5998 3.98779 10.6666 4.14323 10.6666 4.32058V13.8062L14.9454 9.52731C15.0747 9.39804 15.2315 9.33341 15.4158 9.33341C15.6001 9.33341 15.7568 9.39804 15.8861 9.52731C16.0154 9.65658 16.08 9.81203 16.08 9.99364C16.08 10.1753 16.0154 10.3307 15.8861 10.46L10.5688 15.7773C10.4908 15.8553 10.4016 15.9172 10.3012 15.9632C10.2008 16.0091 10.1003 16.0321 9.99991 16.0321Z" fill="#0A4997"/>
</g>
</svg>
