<svg width="24" height="24" viewBox="0 0 24 24" fill="none" xmlns="http://www.w3.org/2000/svg">
    <path
        d="M12 12.0001C10.9 12.0001 9.95833 11.6085 9.175 10.8251C8.39167 10.0418 8 9.10012 8 8.00012C8 6.90012 8.39167 5.95846 9.175 5.17512C9.95833 4.39179 10.9 4.00012 12 4.00012C13.1 4.00012 14.0417 4.39179 14.825 5.17512C15.6083 5.95846 16 6.90012 16 8.00012C16 9.10012 15.6083 10.0418 14.825 10.8251C14.0417 11.6085 13.1 12.0001 12 12.0001ZM4 20.0001V17.2001C4 16.6335 4.14583 16.1126 4.4375 15.6376C4.72917 15.1626 5.11667 14.8001 5.6 14.5501C6.63333 14.0335 7.68333 13.646 8.75 13.3876C9.81667 13.1293 10.9 13.0001 12 13.0001C13.1 13.0001 14.1833 13.1293 15.25 13.3876C16.3167 13.646 17.3667 14.0335 18.4 14.5501C18.8833 14.8001 19.2708 15.1626 19.5625 15.6376C19.8542 16.1126 20 16.6335 20 17.2001V20.0001H4Z"
        fill="#0A7BA1" />
</svg>