<svg width="17" height="18" viewBox="0 0 17 18" fill="none" xmlns="http://www.w3.org/2000/svg">
<path d="M5.33333 13.1667L8.33333 10.1667L11.3333 13.1667L12.5 12L9.5 9.00002L12.5 6.00002L11.3333 4.83335L8.33333 7.83335L5.33333 4.83335L4.16667 6.00002L7.16667 9.00002L4.16667 12L5.33333 13.1667ZM8.33333 17.3334C7.18056 17.3334 6.09722 17.1145 5.08333 16.6767C4.06944 16.2395 3.1875 15.6459 2.4375 14.8959C1.6875 14.1459 1.09389 13.2639 0.656667 12.25C0.218889 11.2361 0 10.1528 0 9.00002C0 7.84724 0.218889 6.76391 0.656667 5.75002C1.09389 4.73613 1.6875 3.85419 2.4375 3.10419C3.1875 2.35419 4.06944 1.7603 5.08333 1.32252C6.09722 0.885298 7.18056 0.666687 8.33333 0.666687C9.48611 0.666687 10.5694 0.885298 11.5833 1.32252C12.5972 1.7603 13.4792 2.35419 14.2292 3.10419C14.9792 3.85419 15.5728 4.73613 16.01 5.75002C16.4478 6.76391 16.6667 7.84724 16.6667 9.00002C16.6667 10.1528 16.4478 11.2361 16.01 12.25C15.5728 13.2639 14.9792 14.1459 14.2292 14.8959C13.4792 15.6459 12.5972 16.2395 11.5833 16.6767C10.5694 17.1145 9.48611 17.3334 8.33333 17.3334Z" fill="#919EA8"/>
</svg>
