<svg width="24" height="24" viewBox="0 0 24 24" fill="none" xmlns="http://www.w3.org/2000/svg">
<path fill-rule="evenodd" clip-rule="evenodd" d="M2.5875 2.5875C2.19583 2.97917 2 3.45 2 4L2 18L4 18L4 4L18 4L18 2L4 2C3.45 2 2.97917 2.19583 2.5875 2.5875Z" fill="#0A7BA1"/>
<path fill-rule="evenodd" clip-rule="evenodd" d="M20 6C20.55 6 21.0208 6.19584 21.4125 6.5875C21.8042 6.97917 22 7.45 22 8L22 20C22 20.55 21.8042 21.0208 21.4125 21.4125C21.0208 21.8042 20.55 22 20 22L8 22C7.45 22 6.97917 21.8042 6.5875 21.4125C6.19583 21.0208 6 20.55 6 20V8C6 7.45 6.19583 6.97917 6.5875 6.5875C6.97917 6.19583 7.45 6 8 6H20ZM13.2253 14.7747V18H14.7747V14.7747H18V13.2253H14.7747V10H13.2253V13.2253H10V14.7747H13.2253Z" fill="#0A7BA1"/>
</svg>
