<svg width="18" height="19" viewBox="0 0 18 19" fill="none" xmlns="http://www.w3.org/2000/svg">
<path d="M2.00122 18.4216C1.45122 18.4216 0.980387 18.2258 0.588721 17.8341C0.197054 17.4425 0.0012207 16.9716 0.0012207 16.4216V12.4216H2.00122V16.4216H16.0012V2.42163H2.00122V6.42163H0.0012207V2.42163C0.0012207 1.87163 0.197054 1.4008 0.588721 1.00913C0.980387 0.617464 1.45122 0.421631 2.00122 0.421631H16.0012C16.5512 0.421631 17.0221 0.617464 17.4137 1.00913C17.8054 1.4008 18.0012 1.87163 18.0012 2.42163V16.4216C18.0012 16.9716 17.8054 17.4425 17.4137 17.8341C17.0221 18.2258 16.5512 18.4216 16.0012 18.4216H2.00122ZM7.50122 14.4216L6.10122 12.9716L8.65122 10.4216H0.0012207V8.42163H8.65122L6.10122 5.87163L7.50122 4.42163L12.5012 9.42163L7.50122 14.4216Z" fill="#FF652E"/>
</svg>
