<svg width="20" height="19" viewBox="0 0 20 19" fill="none" xmlns="http://www.w3.org/2000/svg">
<mask id="mask0_857_29226" style="mask-type:alpha" maskUnits="userSpaceOnUse" x="0" y="0" width="20" height="19">
<rect x="0.5" width="19" height="19" fill="#D9D9D9"/>
</mask>
<g mask="url(#mask0_857_29226)">
<path d="M9.99996 12.6666C10.9895 12.6666 11.8308 12.3204 12.5238 11.628C13.2162 10.935 13.5625 10.0937 13.5625 9.10413C13.5625 8.11454 13.2162 7.27327 12.5238 6.58029C11.8308 5.88785 10.9895 5.54163 9.99996 5.54163C9.01038 5.54163 8.1691 5.88785 7.47613 6.58029C6.78368 7.27327 6.43746 8.11454 6.43746 9.10413C6.43746 10.0937 6.78368 10.935 7.47613 11.628C8.1691 12.3204 9.01038 12.6666 9.99996 12.6666ZM9.99996 11.2416C9.40621 11.2416 8.90165 11.0337 8.48629 10.6178C8.0704 10.2024 7.86246 9.69788 7.86246 9.10413C7.86246 8.51038 8.0704 8.00556 8.48629 7.58967C8.90165 7.17431 9.40621 6.96663 9.99996 6.96663C10.5937 6.96663 11.0985 7.17431 11.5144 7.58967C11.9298 8.00556 12.1375 8.51038 12.1375 9.10413C12.1375 9.69788 11.9298 10.2024 11.5144 10.6178C11.0985 11.0337 10.5937 11.2416 9.99996 11.2416ZM9.99996 15.0416C8.07357 15.0416 6.31871 14.5038 4.73538 13.4282C3.15204 12.3531 2.00413 10.9118 1.29163 9.10413C2.00413 7.29649 3.15204 5.85486 4.73538 4.77925C6.31871 3.70417 8.07357 3.16663 9.99996 3.16663C11.9263 3.16663 13.6812 3.70417 15.2645 4.77925C16.8479 5.85486 17.9958 7.29649 18.7083 9.10413C17.9958 10.9118 16.8479 12.3531 15.2645 13.4282C13.6812 14.5038 11.9263 15.0416 9.99996 15.0416Z" fill="#283036"/>
</g>
</svg>
