<svg width="24" height="24" viewBox="0 0 24 24" fill="none" xmlns="http://www.w3.org/2000/svg">
    <mask id="mask0_576_407" style="mask-type:alpha" maskUnits="userSpaceOnUse" x="0" y="0" width="25" height="24">
        <rect x="0.0012207" width="24" height="24" fill="#D9D9D9" />
    </mask>
    <g mask="url(#mask0_576_407)">
        <path
            d="M12.0012 22C10.6346 22 9.34289 21.7375 8.12622 21.2125C6.90955 20.6875 5.84705 19.9708 4.93872 19.0625C4.03039 18.1542 3.31372 17.0917 2.78872 15.875C2.26372 14.6583 2.00122 13.3667 2.00122 12C2.00122 10.6167 2.26372 9.32083 2.78872 8.1125C3.31372 6.90417 4.03039 5.84583 4.93872 4.9375C5.84705 4.02917 6.90955 3.3125 8.12622 2.7875C9.34289 2.2625 10.6346 2 12.0012 2C13.3846 2 14.6804 2.2625 15.8887 2.7875C17.0971 3.3125 18.1554 4.02917 19.0637 4.9375C19.9721 5.84583 20.6887 6.90417 21.2137 8.1125C21.7387 9.32083 22.0012 10.6167 22.0012 12C22.0012 13.3667 21.7387 14.6583 21.2137 15.875C20.6887 17.0917 19.9721 18.1542 19.0637 19.0625C18.1554 19.9708 17.0971 20.6875 15.8887 21.2125C14.6804 21.7375 13.3846 22 12.0012 22ZM12.0012 19.95C12.4346 19.35 12.8096 18.725 13.1262 18.075C13.4429 17.425 13.7012 16.7333 13.9012 16H10.1012C10.3012 16.7333 10.5596 17.425 10.8762 18.075C11.1929 18.725 11.5679 19.35 12.0012 19.95ZM9.40122 19.55C9.10122 19 8.83872 18.4292 8.61372 17.8375C8.38872 17.2458 8.20122 16.6333 8.05122 16H5.10122C5.58455 16.8333 6.18872 17.5583 6.91372 18.175C7.63872 18.7917 8.46789 19.25 9.40122 19.55ZM14.6012 19.55C15.5346 19.25 16.3637 18.7917 17.0887 18.175C17.8137 17.5583 18.4179 16.8333 18.9012 16H15.9512C15.8012 16.6333 15.6137 17.2458 15.3887 17.8375C15.1637 18.4292 14.9012 19 14.6012 19.55ZM4.25122 14H7.65122C7.60122 13.6667 7.56372 13.3375 7.53872 13.0125C7.51372 12.6875 7.50122 12.35 7.50122 12C7.50122 11.65 7.51372 11.3125 7.53872 10.9875C7.56372 10.6625 7.60122 10.3333 7.65122 10H4.25122C4.16789 10.3333 4.10539 10.6625 4.06372 10.9875C4.02205 11.3125 4.00122 11.65 4.00122 12C4.00122 12.35 4.02205 12.6875 4.06372 13.0125C4.10539 13.3375 4.16789 13.6667 4.25122 14ZM9.65122 14H14.3512C14.4012 13.6667 14.4387 13.3375 14.4637 13.0125C14.4887 12.6875 14.5012 12.35 14.5012 12C14.5012 11.65 14.4887 11.3125 14.4637 10.9875C14.4387 10.6625 14.4012 10.3333 14.3512 10H9.65122C9.60122 10.3333 9.56372 10.6625 9.53872 10.9875C9.51372 11.3125 9.50122 11.65 9.50122 12C9.50122 12.35 9.51372 12.6875 9.53872 13.0125C9.56372 13.3375 9.60122 13.6667 9.65122 14ZM16.3512 14H19.7512C19.8346 13.6667 19.8971 13.3375 19.9387 13.0125C19.9804 12.6875 20.0012 12.35 20.0012 12C20.0012 11.65 19.9804 11.3125 19.9387 10.9875C19.8971 10.6625 19.8346 10.3333 19.7512 10H16.3512C16.4012 10.3333 16.4387 10.6625 16.4637 10.9875C16.4887 11.3125 16.5012 11.65 16.5012 12C16.5012 12.35 16.4887 12.6875 16.4637 13.0125C16.4387 13.3375 16.4012 13.6667 16.3512 14ZM15.9512 8H18.9012C18.4179 7.16667 17.8137 6.44167 17.0887 5.825C16.3637 5.20833 15.5346 4.75 14.6012 4.45C14.9012 5 15.1637 5.57083 15.3887 6.1625C15.6137 6.75417 15.8012 7.36667 15.9512 8ZM10.1012 8H13.9012C13.7012 7.26667 13.4429 6.575 13.1262 5.925C12.8096 5.275 12.4346 4.65 12.0012 4.05C11.5679 4.65 11.1929 5.275 10.8762 5.925C10.5596 6.575 10.3012 7.26667 10.1012 8ZM5.10122 8H8.05122C8.20122 7.36667 8.38872 6.75417 8.61372 6.1625C8.83872 5.57083 9.10122 5 9.40122 4.45C8.46789 4.75 7.63872 5.20833 6.91372 5.825C6.18872 6.44167 5.58455 7.16667 5.10122 8Z"
            fill="#FF652E" />
    </g>
</svg>