<svg width="22" height="21" viewBox="0 0 22 21" fill="none" xmlns="http://www.w3.org/2000/svg">
<path d="M18.75 13.95L17.25 12.4C17.9167 12.2167 18.4584 11.8625 18.875 11.3375C19.2917 10.8125 19.5 10.2 19.5 9.49999C19.5 8.66666 19.2084 7.95832 18.625 7.37499C18.0417 6.79166 17.3334 6.49999 16.5 6.49999H12.5V4.49999H16.5C17.8834 4.49999 19.0625 4.98749 20.0375 5.96249C21.0125 6.93749 21.5 8.11666 21.5 9.49999C21.5 10.45 21.2542 11.325 20.7625 12.125C20.2709 12.925 19.6 13.5333 18.75 13.95ZM15.35 10.5L13.35 8.49999H15.5V10.5H15.35ZM19.3 20.1L0.900024 1.69999L2.30002 0.299988L20.7 18.7L19.3 20.1ZM10.5 14.5H6.50002C5.11669 14.5 3.93752 14.0125 2.96252 13.0375C1.98752 12.0625 1.50002 10.8833 1.50002 9.49999C1.50002 8.34999 1.85002 7.32499 2.55002 6.42499C3.25002 5.52499 4.15002 4.93332 5.25002 4.64999L7.10002 6.49999H6.50002C5.66669 6.49999 4.95836 6.79166 4.37502 7.37499C3.79169 7.95832 3.50002 8.66666 3.50002 9.49999C3.50002 10.3333 3.79169 11.0417 4.37502 11.625C4.95836 12.2083 5.66669 12.5 6.50002 12.5H10.5V14.5ZM7.50002 10.5V8.49999H9.12502L11.1 10.5H7.50002Z" fill="#01455C"/>
</svg>
