<svg width="14" height="16" viewBox="0 0 14 16" fill="none" xmlns="http://www.w3.org/2000/svg">
<path d="M6.99961 8C7.43961 8 7.81641 7.8432 8.13001 7.5296C8.44308 7.21653 8.59961 6.84 8.59961 6.4C8.59961 5.96 8.44308 5.5832 8.13001 5.2696C7.81641 4.95653 7.43961 4.8 6.99961 4.8C6.55961 4.8 6.18308 4.95653 5.87001 5.2696C5.55641 5.5832 5.39961 5.96 5.39961 6.4C5.39961 6.84 5.55641 7.21653 5.87001 7.5296C6.18308 7.8432 6.55961 8 6.99961 8ZM6.99961 16C4.85294 14.1733 3.24974 12.4765 2.19001 10.9096C1.12974 9.3432 0.599609 7.89333 0.599609 6.56C0.599609 4.56 1.24308 2.96667 2.53001 1.78C3.81641 0.593333 5.30628 0 6.99961 0C8.69294 0 10.1828 0.593333 11.4692 1.78C12.7561 2.96667 13.3996 4.56 13.3996 6.56C13.3996 7.89333 12.8697 9.3432 11.81 10.9096C10.7497 12.4765 9.14628 14.1733 6.99961 16Z" fill="#157A99"/>
</svg>
