<svg width="22" height="18" viewBox="0 0 22 18" fill="none" xmlns="http://www.w3.org/2000/svg">
<path d="M13 18.0001C11.7667 18.0001 10.6125 17.771 9.5375 17.3126C8.4625 16.8543 7.51667 16.2251 6.7 15.4251L8.125 14.0001C8.75833 14.6168 9.49167 15.1043 10.325 15.4626C11.1583 15.821 12.05 16.0001 13 16.0001C14.9333 16.0001 16.5833 15.3168 17.95 13.9501C19.3167 12.5835 20 10.9335 20 9.00012C20 7.06679 19.3167 5.41679 17.95 4.05012C16.5833 2.68346 14.9333 2.00012 13 2.00012C11.0667 2.00012 9.41667 2.68346 8.05 4.05012C6.68333 5.41679 6 7.06679 6 9.00012V9.17512L7.825 7.35012L9.25 8.75012L5 13.0001L0.75 8.75012L2.175 7.35012L4 9.20012V9.00012C4 7.75012 4.2375 6.57929 4.7125 5.48762C5.1875 4.39596 5.82917 3.44596 6.6375 2.63762C7.44583 1.82929 8.39583 1.18762 9.4875 0.712622C10.5792 0.237622 11.75 0.00012207 13 0.00012207C14.25 0.00012207 15.4208 0.237622 16.5125 0.712622C17.6042 1.18762 18.5542 1.82929 19.3625 2.63762C20.1708 3.44596 20.8125 4.39596 21.2875 5.48762C21.7625 6.57929 22 7.75012 22 9.00012C22 11.5001 21.125 13.6251 19.375 15.3751C17.625 17.1251 15.5 18.0001 13 18.0001ZM11 13.0001C10.7167 13.0001 10.4792 12.9043 10.2875 12.7126C10.0958 12.521 10 12.2835 10 12.0001V9.00012C10 8.71679 10.0958 8.47929 10.2875 8.28762C10.4792 8.09596 10.7167 8.00012 11 8.00012V7.00012C11 6.45012 11.1958 5.97929 11.5875 5.58762C11.9792 5.19596 12.45 5.00012 13 5.00012C13.55 5.00012 14.0208 5.19596 14.4125 5.58762C14.8042 5.97929 15 6.45012 15 7.00012V8.00012C15.2833 8.00012 15.5208 8.09596 15.7125 8.28762C15.9042 8.47929 16 8.71679 16 9.00012V12.0001C16 12.2835 15.9042 12.521 15.7125 12.7126C15.5208 12.9043 15.2833 13.0001 15 13.0001H11ZM12 8.00012H14V7.00012C14 6.71679 13.9042 6.47929 13.7125 6.28762C13.5208 6.09596 13.2833 6.00012 13 6.00012C12.7167 6.00012 12.4792 6.09596 12.2875 6.28762C12.0958 6.47929 12 6.71679 12 7.00012V8.00012Z" fill="#0A7BA1"/>
</svg>
