<svg width="16" height="21" viewBox="0 0 16 21" fill="none" xmlns="http://www.w3.org/2000/svg">
    <path d="M2 21.0001C1.45 21.0001 0.979167 20.8043 0.5875 20.4126C0.195833 20.021 0 19.5501 0 19.0001V9.00012C0 8.45012 0.195833 7.97929 0.5875 7.58762C0.979167 7.19596 1.45 7.00012 2 7.00012H3V5.00012C3 3.61679 3.4875 2.43762 4.4625 1.46262C5.4375 0.487622 6.61667 0.00012207 8 0.00012207C9.38333 0.00012207 10.5625 0.487622 11.5375 1.46262C12.5125 2.43762 13 3.61679 13 5.00012V7.00012H14C14.55 7.00012 15.0208 7.19596 15.4125 7.58762C15.8042 7.97929 16 8.45012 16 9.00012V19.0001C16 19.5501 15.8042 20.021 15.4125 20.4126C15.0208 20.8043 14.55 21.0001 14 21.0001H2ZM8 16.0001C8.55 16.0001 9.02083 15.8043 9.4125 15.4126C9.80417 15.021 10 14.5501 10 14.0001C10 13.4501 9.80417 12.9793 9.4125 12.5876C9.02083 12.196 8.55 12.0001 8 12.0001C7.45 12.0001 6.97917 12.196 6.5875 12.5876C6.19583 12.9793 6 13.4501 6 14.0001C6 14.5501 6.19583 15.021 6.5875 15.4126C6.97917 15.8043 7.45 16.0001 8 16.0001ZM5 7.00012H11V5.00012C11 4.16679 10.7083 3.45846 10.125 2.87512C9.54167 2.29179 8.83333 2.00012 8 2.00012C7.16667 2.00012 6.45833 2.29179 5.875 2.87512C5.29167 3.45846 5 4.16679 5 5.00012V7.00012Z"
          fill="#919EA8"/>
</svg>
