<svg width="28" height="34" viewBox="0 0 28 34" fill="none" xmlns="http://www.w3.org/2000/svg">
<path d="M0.666748 28.6666V25.8888H4.11121V13.4999C4.11121 11.1758 4.80101 9.10871 6.18062 7.29854C7.56026 5.48835 9.37046 4.33325 11.6112 3.83325V2.63879C11.6112 1.9814 11.845 1.43279 12.3126 0.99296C12.7802 0.553154 13.3427 0.333252 14.0001 0.333252C14.6575 0.333252 15.22 0.553154 15.6876 0.99296C16.1552 1.43279 16.389 1.9814 16.389 2.63879V3.83325C18.6297 4.33325 20.4445 5.48835 21.8334 7.29854C23.2223 9.10871 23.9167 11.1758 23.9167 13.4999V25.8888H27.3334V28.6666H0.666748ZM14.0001 33.6666C13.1019 33.6666 12.3218 33.3402 11.6598 32.6874C10.9978 32.0346 10.6667 31.2499 10.6667 30.3333H17.3334C17.3334 31.2499 17.007 32.0346 16.3542 32.6874C15.7015 33.3402 14.9167 33.6666 14.0001 33.6666Z" fill="#515A61"/>
</svg>
