<svg width="12" height="13" viewBox="0 0 12 13" fill="none" xmlns="http://www.w3.org/2000/svg">
    <path d="M10.3333 0.833374L0.333328 10.8334L1.66666 12.1667L11.6667 2.16671M2.66666 1.16671C2.13623 1.16671 1.62752 1.37742 1.25245 1.75249C0.877375 2.12757 0.666662 2.63627 0.666662 3.16671C0.666662 3.69714 0.877375 4.20585 1.25245 4.58092C1.62752 4.95599 2.13623 5.16671 2.66666 5.16671C3.19709 5.16671 3.7058 4.95599 4.08088 4.58092C4.45595 4.20585 4.66666 3.69714 4.66666 3.16671C4.66666 2.63627 4.45595 2.12757 4.08088 1.75249C3.7058 1.37742 3.19709 1.16671 2.66666 1.16671ZM9.33333 7.83337C8.8029 7.83337 8.29419 8.04409 7.91911 8.41916C7.54404 8.79423 7.33333 9.30294 7.33333 9.83337C7.33333 10.3638 7.54404 10.8725 7.91911 11.2476C8.29419 11.6227 8.8029 11.8334 9.33333 11.8334C9.86376 11.8334 10.3725 11.6227 10.7475 11.2476C11.1226 10.8725 11.3333 10.3638 11.3333 9.83337C11.3333 9.30294 11.1226 8.79423 10.7475 8.41916C10.3725 8.04409 9.86376 7.83337 9.33333 7.83337Z"
          fill="#18AB75"/>
</svg>
