<svg width="16" height="16" viewBox="0 0 16 16" fill="none" xmlns="http://www.w3.org/2000/svg">
<path d="M2 2.66667V13.3333H3.58333V4H6.58333C7.30067 4.00667 7.84315 4.25188 8.17448 4.67188C8.50048 5.08588 8.66667 5.71933 8.66667 6.58333V10H10.25V6.41667C10.2253 5.16867 9.93708 4.22823 9.42708 3.60156C8.92175 2.9809 8.12647 2.66667 7.0638 2.66667H2ZM12.4167 2.66667V12H9.41667C8.69933 11.9933 8.15685 11.7481 7.82552 11.3281C7.49952 10.9141 7.33333 10.2807 7.33333 9.41667V6H5.75V9.58333C5.77467 10.8313 6.06292 11.7718 6.57292 12.3984C7.07825 13.0191 7.87353 13.3333 8.9362 13.3333H14V2.66667H12.4167Z" fill="#008957"/>
</svg>
