<svg width="20" height="20" viewBox="0 0 20 20" fill="none" xmlns="http://www.w3.org/2000/svg">
<path fill-rule="evenodd" clip-rule="evenodd" d="M18.7316 3.8797H4.7794V1.5987C4.7794 1.04112 4.0951 0.749656 3.70226 1.15517L0.179373 4.69073C-0.0613997 4.94417 -0.0613997 5.33701 0.179373 5.59046L3.70226 9.12601C4.0951 9.53153 4.7794 9.25274 4.7794 8.68249V6.41415H18.7316C19.4285 6.41415 19.9988 5.8439 19.9988 5.14693C19.9988 4.44995 19.4285 3.8797 18.7316 3.8797ZM1.266 14.0175H15.2182V11.7365C15.2182 11.1789 15.9025 10.8874 16.2953 11.293L19.8182 14.8285C20.059 15.082 20.059 15.4748 19.8182 15.7282L16.2953 19.2638C15.9025 19.6693 15.2182 19.3905 15.2182 18.8203V16.5519H1.266C0.569031 16.5519 -0.0012207 15.9817 -0.0012207 15.2847C-0.0012207 14.5877 0.569031 14.0175 1.266 14.0175Z" fill="#FF652E"/>
</svg>
