<svg width="40" height="40" viewBox="0 0 40 40" fill="none" xmlns="http://www.w3.org/2000/svg">
<path d="M9.68 29C11.36 27.9333 13.02 27.1267 14.66 26.58C16.3 26.0333 18.08 25.76 20 25.76C21.92 25.76 23.7067 26.0333 25.36 26.58C27.0133 27.1267 28.68 27.9333 30.36 29C31.5333 27.56 32.3667 26.1067 32.86 24.64C33.3533 23.1733 33.6 21.6267 33.6 20C33.6 16.1333 32.3 12.9 29.7 10.3C27.1 7.7 23.8667 6.4 20 6.4C16.1333 6.4 12.9 7.7 10.3 10.3C7.7 12.9 6.4 16.1333 6.4 20C6.4 21.6267 6.65333 23.1733 7.16 24.64C7.66667 26.1067 8.50667 27.56 9.68 29ZM20 21.2C18.4533 21.2 17.1533 20.6733 16.1 19.62C15.0467 18.5667 14.52 17.2667 14.52 15.72C14.52 14.1733 15.0467 12.8733 16.1 11.82C17.1533 10.7667 18.4533 10.24 20 10.24C21.5467 10.24 22.8467 10.7667 23.9 11.82C24.9533 12.8733 25.48 14.1733 25.48 15.72C25.48 17.2667 24.9533 18.5667 23.9 19.62C22.8467 20.6733 21.5467 21.2 20 21.2ZM20 36C17.76 36 15.6667 35.58 13.72 34.74C11.7733 33.9 10.08 32.7533 8.64 31.3C7.2 29.8467 6.06667 28.1467 5.24 26.2C4.41333 24.2533 4 22.1733 4 19.96C4 17.7733 4.42 15.7067 5.26 13.76C6.1 11.8133 7.24667 10.12 8.7 8.68C10.1533 7.24 11.8533 6.1 13.8 5.26C15.7467 4.42 17.8267 4 20.04 4C22.2267 4 24.2933 4.42 26.24 5.26C28.1867 6.1 29.88 7.24 31.32 8.68C32.76 10.12 33.9 11.8133 34.74 13.76C35.58 15.7067 36 17.7867 36 20C36 22.1867 35.58 24.2533 34.74 26.2C33.9 28.1467 32.76 29.8467 31.32 31.3C29.88 32.7533 28.1867 33.9 26.24 34.74C24.2933 35.58 22.2133 36 20 36Z" fill="#515A61"/>
</svg>
