<svg width="21" height="20" viewBox="0 0 21 20" fill="none" xmlns="http://www.w3.org/2000/svg">
<path d="M2.5 19.5C1.95 19.5 1.47917 19.3042 1.0875 18.9125C0.695833 18.5208 0.5 18.05 0.5 17.5V6.5C0.5 5.95 0.695833 5.47917 1.0875 5.0875C1.47917 4.69583 1.95 4.5 2.5 4.5H6.5V2.5C6.5 1.95 6.69583 1.47917 7.0875 1.0875C7.47917 0.695833 7.95 0.5 8.5 0.5H12.5C13.05 0.5 13.5208 0.695833 13.9125 1.0875C14.3042 1.47917 14.5 1.95 14.5 2.5V4.5H18.5C19.05 4.5 19.5208 4.69583 19.9125 5.0875C20.3042 5.47917 20.5 5.95 20.5 6.5V17.5C20.5 18.05 20.3042 18.5208 19.9125 18.9125C19.5208 19.3042 19.05 19.5 18.5 19.5H2.5ZM8.5 4.5H12.5V2.5H8.5V4.5Z" fill="white"/>
</svg>
