<svg width="24" height="22" viewBox="0 0 24 22" fill="none" xmlns="http://www.w3.org/2000/svg">
<path d="M6.5442 1.03977C6.49194 0.987332 6.42985 0.945724 6.36147 0.917333C6.2931 0.888943 6.2198 0.874329 6.14576 0.874329C6.07173 0.874329 5.99843 0.888943 5.93005 0.917333C5.86168 0.945724 5.79958 0.987332 5.74732 1.03977L2.76232 4.00743L1.69826 2.97056C1.646 2.91812 1.5839 2.87651 1.51553 2.84812C1.44716 2.81973 1.37385 2.80511 1.29982 2.80511C1.22579 2.80511 1.15248 2.81973 1.08411 2.84812C1.01574 2.87651 0.95364 2.91812 0.901382 2.97056L0.165444 3.70743C0.113004 3.75969 0.0713954 3.82179 0.0430049 3.89016C0.0146143 3.95853 0 4.03184 0 4.10587C0 4.1799 0.0146143 4.25321 0.0430049 4.32158C0.0713954 4.38995 0.113004 4.45205 0.165444 4.50431L2.39623 6.72618C2.50758 6.83203 2.65533 6.89105 2.80896 6.89105C2.96259 6.89105 3.11035 6.83203 3.2217 6.72618L3.95248 5.994L7.33686 2.61009C7.44231 2.50455 7.50189 2.3617 7.50268 2.21252C7.50347 2.06333 7.4454 1.91985 7.34108 1.81321L6.5442 1.03977ZM6.5442 8.50181C6.49194 8.44937 6.42985 8.40776 6.36147 8.37937C6.2931 8.35098 6.2198 8.33637 6.14576 8.33637C6.07173 8.33637 5.99843 8.35098 5.93005 8.37937C5.86168 8.40776 5.79958 8.44937 5.74732 8.50181L2.76232 11.4887L1.69826 10.4528C1.646 10.4003 1.5839 10.3587 1.51553 10.3303C1.44716 10.3019 1.37385 10.2873 1.29982 10.2873C1.22579 10.2873 1.15248 10.3019 1.08411 10.3303C1.01574 10.3587 0.95364 10.4003 0.901382 10.4528L0.165444 11.1882C0.113004 11.2405 0.0713954 11.3026 0.0430049 11.3709C0.0146143 11.4393 0 11.5126 0 11.5867C0 11.6607 0.0146143 11.734 0.0430049 11.8024C0.0713954 11.8707 0.113004 11.9328 0.165444 11.9851L2.3906 14.2117C2.50187 14.3175 2.64955 14.3765 2.8031 14.3765C2.95665 14.3765 3.10433 14.3175 3.2156 14.2117L3.95154 13.4762L7.33592 10.0909C7.44096 9.98608 7.50035 9.84403 7.50114 9.69565C7.50193 9.54727 7.44406 9.40459 7.34014 9.29869L6.5442 8.50181ZM2.99998 16.6257C1.75826 16.6257 0.722319 17.6335 0.722319 18.8757C0.722319 20.1179 1.7592 21.1257 2.99998 21.1257C3.59672 21.1257 4.16901 20.8887 4.59097 20.4667C5.01293 20.0448 5.24998 19.4725 5.24998 18.8757C5.24998 18.279 5.01293 17.7067 4.59097 17.2847C4.16901 16.8628 3.59672 16.6257 2.99998 16.6257ZM23.25 17.3757H9.74999C9.55107 17.3757 9.36031 17.4547 9.21966 17.5954C9.079 17.736 8.99998 17.9268 8.99998 18.1257V19.6257C8.99998 19.8246 9.079 20.0154 9.21966 20.1561C9.36031 20.2967 9.55107 20.3757 9.74999 20.3757H23.25C23.4489 20.3757 23.6397 20.2967 23.7803 20.1561C23.921 20.0154 24 19.8246 24 19.6257V18.1257C24 17.9268 23.921 17.736 23.7803 17.5954C23.6397 17.4547 23.4489 17.3757 23.25 17.3757ZM23.25 2.37571H9.74999C9.55107 2.37571 9.36031 2.45473 9.21966 2.59538C9.079 2.73603 8.99998 2.9268 8.99998 3.12571V4.62571C8.99998 4.82463 9.079 5.01539 9.21966 5.15604C9.36031 5.2967 9.55107 5.37571 9.74999 5.37571H23.25C23.4489 5.37571 23.6397 5.2967 23.7803 5.15604C23.921 5.01539 24 4.82463 24 4.62571V3.12571C24 2.9268 23.921 2.73603 23.7803 2.59538C23.6397 2.45473 23.4489 2.37571 23.25 2.37571ZM23.25 9.87572H9.74999C9.55107 9.87572 9.36031 9.95474 9.21966 10.0954C9.079 10.236 8.99998 10.4268 8.99998 10.6257V12.1257C8.99998 12.3246 9.079 12.5154 9.21966 12.6561C9.36031 12.7967 9.55107 12.8757 9.74999 12.8757H23.25C23.4489 12.8757 23.6397 12.7967 23.7803 12.6561C23.921 12.5154 24 12.3246 24 12.1257V10.6257C24 10.4268 23.921 10.236 23.7803 10.0954C23.6397 9.95474 23.4489 9.87572 23.25 9.87572Z" fill="#FF642E"/>
</svg>
